<?xml version="1.0" standalone="no"?>
<!DOCTYPE svg PUBLIC "-//W3C//DTD SVG 20010904//EN"
 "http://www.w3.org/TR/2001/REC-SVG-20010904/DTD/svg10.dtd">
<svg version="1.0" xmlns="http://www.w3.org/2000/svg"
 width="512.000000pt" height="512.000000pt" viewBox="0 0 512.000000 512.000000"
 preserveAspectRatio="xMidYMid meet">

<g transform="translate(0.000000,512.000000) scale(0.100000,-0.100000)"
fill="#000000" stroke="none">
<path d="M2512 4629 c-45 -10 -94 -24 -110 -32 -15 -8 -47 -24 -72 -36 -55
-26 -114 -61 -147 -87 -42 -33 -178 -148 -183 -155 -3 -3 -26 -16 -51 -27 -26
-12 -67 -37 -91 -55 -43 -33 -48 -34 -159 -39 -115 -5 -189 -25 -189 -51 -2
-76 -8 -165 -12 -177 -3 -8 -23 -54 -45 -101 -45 -96 -104 -294 -123 -412 -13
-77 -11 -270 6 -677 6 -141 7 -146 36 -188 28 -41 31 -52 36 -155 5 -103 4
-111 -11 -98 -10 7 -17 20 -17 28 0 21 -49 113 -83 156 -53 66 -127 99 -127
57 0 -12 12 -25 33 -35 60 -28 107 -76 141 -144 31 -61 48 -121 93 -330 l16
-73 -24 -19 -24 -20 37 7 c29 5 40 2 57 -15 12 -12 21 -28 21 -36 0 -8 5 -15
10 -15 6 0 10 -5 10 -10 0 -20 120 -252 147 -285 5 -5 19 -26 33 -45 13 -19
31 -43 41 -52 9 -10 23 -26 31 -36 19 -26 168 -142 198 -154 13 -5 27 -12 30
-16 5 -7 55 -36 90 -53 8 -4 35 -15 60 -24 25 -9 58 -23 74 -31 123 -62 543
-61 663 1 15 8 34 15 41 15 19 0 107 47 187 98 155 101 222 165 310 300 14 20
32 46 40 57 8 10 15 25 15 32 0 8 13 42 28 76 16 34 35 85 42 112 8 28 16 52
20 55 3 3 11 21 16 40 l10 35 60 -1 c32 -1 49 0 38 3 -12 2 -29 12 -39 23 -15
17 -15 26 0 132 23 157 61 302 92 349 14 21 50 55 79 74 35 23 54 43 54 56 0
10 -6 19 -14 19 -17 0 -106 -68 -106 -81 0 -5 -9 -22 -20 -37 -11 -15 -28 -51
-38 -80 -24 -68 -29 -72 -38 -27 -11 61 2 161 27 194 20 28 21 36 20 377 -2
321 -11 473 -31 499 -4 6 -11 26 -15 45 -4 19 -20 60 -35 90 -19 38 -31 83
-39 150 -7 52 -17 97 -23 101 -21 13 1 38 44 50 24 7 51 19 60 27 15 13 15 16
-5 49 -28 48 -150 170 -212 213 -127 88 -308 141 -567 166 -37 3 -72 12 -78
19 -7 8 -2 32 16 81 36 98 37 101 23 109 -25 16 -136 34 -204 34 -38 -1 -107
-10 -153 -20z m-292 -1074 c102 -8 214 -15 248 -15 77 0 244 -54 397 -126 33
-16 90 -48 126 -71 37 -24 70 -43 74 -43 4 0 5 15 2 34 -5 29 -2 37 19 51 19
12 24 24 24 58 0 63 11 73 46 45 69 -56 156 -109 171 -106 10 2 19 12 21 23 2
11 11 39 19 63 l16 43 61 -63 c34 -35 71 -77 83 -94 44 -62 113 -460 112 -649
0 -106 0 -109 -17 -87 -80 109 -199 190 -310 212 -63 12 -141 44 -309 127 -64
31 -121 53 -135 51 -20 -3 -23 -8 -21 -45 3 -71 66 -166 119 -179 23 -6 22 -9
-41 -66 -36 -33 -72 -75 -80 -92 -8 -17 -24 -47 -35 -66 -11 -19 -23 -56 -26
-82 -4 -27 -9 -48 -12 -48 -2 0 -28 13 -56 29 -44 25 -60 29 -122 27 -61 -2
-76 -6 -118 -34 -47 -32 -66 -34 -66 -7 0 27 -31 106 -58 148 -32 51 -88 108
-137 142 l-36 24 29 15 c31 16 82 71 82 88 0 5 7 25 16 43 19 42 15 89 -9 93
-9 2 -43 -10 -75 -26 -31 -16 -104 -54 -162 -83 -127 -65 -171 -84 -241 -105
-102 -30 -212 -126 -269 -237 -28 -53 -33 -76 -39 -162 l-6 -100 -24 120 c-35
181 -38 277 -11 415 12 63 30 171 40 240 38 265 92 386 205 458 86 55 185 62
505 37z m884 -826 c68 -25 86 -45 31 -35 -28 6 -36 4 -33 -6 3 -8 33 -17 74
-23 77 -12 68 -25 -13 -17 -44 4 -62 0 -109 -24 -31 -15 -73 -44 -93 -64 -39
-38 -87 -116 -98 -159 -6 -23 -5 -25 10 -12 10 7 17 19 17 27 0 7 11 25 25 40
l25 27 0 -37 c0 -40 19 -84 45 -106 13 -11 15 -10 10 3 -8 19 12 32 28 19 25
-19 82 -32 114 -26 20 4 51 23 79 50 24 24 49 44 54 44 6 0 10 -12 11 -27 1
-49 17 5 18 60 1 61 -18 106 -58 140 l-33 27 34 0 c19 0 40 6 47 13 11 10 13
9 8 -5 -4 -10 -2 -18 3 -18 23 0 88 -73 105 -117 10 -27 22 -52 26 -57 16 -18
9 59 -8 84 -28 43 -76 90 -92 91 -11 0 -12 2 -3 6 21 8 13 22 -20 32 -28 8
-25 9 19 4 46 -5 54 -3 78 21 15 15 24 33 21 41 -11 29 22 15 72 -31 35 -31
63 -69 89 -122 36 -73 38 -82 38 -178 0 -95 -2 -103 -37 -175 -47 -94 -133
-179 -210 -205 -10 -4 -18 -10 -18 -14 0 -5 -9 -6 -20 -3 -11 3 -20 0 -20 -6
0 -7 -9 -9 -24 -5 -13 3 -33 1 -44 -5 -15 -8 -36 -8 -74 0 -77 15 -150 40
-166 56 -7 7 -17 13 -22 13 -12 0 -100 81 -100 91 0 5 -10 23 -23 42 -13 19
-29 61 -36 93 -7 32 -18 74 -23 91 -6 22 -6 44 1 65 6 18 18 57 27 86 8 28 20
52 25 52 5 0 9 7 9 15 0 29 142 165 171 165 5 0 33 -9 63 -21z m-930 -21 c11
-10 25 -18 32 -18 26 0 123 -122 150 -188 78 -189 -15 -415 -210 -514 -52 -26
-77 -32 -161 -38 -59 -3 -103 -2 -106 3 -4 6 -16 7 -28 4 -12 -3 -21 0 -21 6
0 7 -21 21 -48 31 -26 11 -57 29 -69 40 -12 12 -36 35 -53 51 -29 28 -81 123
-94 170 -20 79 -10 255 15 255 5 0 9 7 9 16 0 28 98 154 121 154 5 0 14 -11
20 -24 13 -29 39 -37 94 -31 l40 5 -34 -13 -34 -13 51 -1 c32 0 49 3 46 9 -4
6 2 7 17 3 35 -11 35 -13 7 -43 -57 -60 -73 -134 -44 -203 19 -45 26 -51 42
-34 12 11 20 10 55 -7 22 -10 53 -20 68 -20 40 -1 102 32 120 64 18 31 38 36
48 12 9 -24 23 3 23 46 l1 35 22 -26 c12 -15 30 -41 40 -59 21 -39 36 -32 17
8 -49 106 -86 151 -160 196 -52 32 -66 36 -132 38 -40 0 -58 3 -40 5 17 2 32
8 32 12 0 5 14 11 32 15 41 8 27 21 -20 18 -35 -2 -32 0 33 31 72 35 87 36
119 5z m1093 -34 c-3 -3 -12 -4 -19 -1 -8 3 -5 6 6 6 11 1 17 -2 13 -5z m-197
-119 c26 -32 -13 -81 -47 -59 -24 15 -27 38 -8 58 20 20 39 20 55 1z m-1076
-21 c19 -18 20 -28 6 -55 -20 -36 -70 -17 -70 26 0 41 36 58 64 29z m691 -97
c64 -33 83 -57 95 -125 21 -110 79 -203 176 -282 9 -8 45 -28 78 -44 58 -29
67 -31 186 -31 123 0 127 1 195 34 39 19 72 37 75 41 3 3 22 18 42 34 l37 27
-15 -61 c-36 -155 -94 -300 -152 -378 -93 -126 -243 -269 -362 -344 -90 -56
-140 -76 -250 -98 -242 -50 -499 -11 -670 100 -170 112 -253 183 -357 307 -49
57 -117 202 -163 346 -38 119 -64 232 -41 182 16 -37 103 -126 155 -159 41
-26 98 -50 113 -47 2 0 21 -6 44 -14 91 -32 260 -1 349 64 110 81 162 163 195
309 15 68 24 87 44 100 14 9 32 22 39 29 12 12 25 16 77 26 27 5 86 -4 110
-16z"/>
<path d="M1793 2565 c-45 -39 -73 -89 -72 -132 0 -24 3 -22 20 21 26 63 51 98
83 116 14 7 26 17 26 22 0 16 -17 8 -57 -27z"/>
<path d="M2782 1898 c-19 -20 -38 -23 -154 -32 -127 -9 -135 -8 -181 13 -55
25 -65 22 -49 -13 13 -30 122 -66 198 -66 102 0 224 56 224 102 0 24 -11 23
-38 -4z"/>
<path d="M2505 1619 c-84 -19 -190 -70 -232 -110 -24 -22 -43 -45 -43 -51 0
-6 19 6 43 26 63 55 62 54 119 76 29 11 64 26 77 33 39 19 268 16 308 -5 18
-9 46 -19 63 -23 16 -4 55 -26 86 -51 32 -24 60 -42 62 -39 7 6 -56 63 -100
91 -81 52 -273 78 -383 53z"/>
<path d="M1378 1953 c7 -3 16 -2 19 1 4 3 -2 6 -13 5 -11 0 -14 -3 -6 -6z"/>
</g>
</svg>
